<svg xmlns="http://www.w3.org/2000/svg" height="20" viewBox="0 -960 960 960" width="20"><path d="m480-179.81-32.922-29.96q-97.061-87.038-160.184-148.519-63.124-61.481-99.139-108.152-36.015-46.671-49.846-84.632-13.831-37.961-13.831-77.119 0-77.738 53.804-131.541 53.804-53.804 131.541-53.804 48.741 0 93.774 23.5 45.034 23.5 76.803 68.078 32.885-44.578 77.288-68.078 44.404-23.5 93.289-23.5 77.737 0 131.541 53.782 53.804 53.783 53.804 131.489 0 39.227-13.331 76.19-13.331 36.964-49.333 83.113-36.001 46.149-99.516 108.674-63.515 62.524-162.82 152.519L480-179.81Zm0-64.421q91.316-82.605 150.52-140.455 59.204-57.85 94.323-100.967 35.119-43.116 49.119-76.644 14-33.528 14-65.868 0-58.527-39.551-97.97-39.551-39.442-97.588-39.442-35.015 0-65.458 14.885-30.442 14.884-62.019 48.923l-35 41h-16.692l-35-41q-31.962-34.423-63.212-49.116-31.25-14.692-64.265-14.692-57.653 0-97.396 39.442-39.743 39.443-39.743 97.99 0 32.352 13.027 64.392t47.096 74.608q34.07 42.568 93.762 100.857Q385.615-330 480-244.231Zm0-261.269Z"/></svg>