<svg xmlns="http://www.w3.org/2000/svg" height="20" viewBox="0 -960 960 960" width="20"><path d="m480-179.81-32.922-29.96q-97.061-87.038-160.184-148.519-63.124-61.481-99.139-108.152-36.015-46.671-49.846-84.632-13.831-37.961-13.831-77.119 0-77.738 53.804-131.541 53.804-53.804 131.541-53.804 48.741 0 93.774 23.5 45.034 23.5 76.803 68.078 32.885-44.578 77.288-68.078 44.404-23.5 93.289-23.5 77.737 0 131.541 53.782 53.804 53.783 53.804 131.489 0 39.227-13.331 76.19-13.331 36.964-49.333 83.113-36.001 46.149-99.516 108.674-63.515 62.524-162.82 152.519L480-179.81Z" stroke="#f2f4f6" stroke-width="2" fill="#EC5642"/></svg>